<svg id="Layer_1" data-name="Layer 1" xmlns="http://www.w3.org/2000/svg" viewBox="0 0 91.74402 73.50577">
  <path d="M80.83218.16184l.82669,9.02759a5.35122,5.35122,0,0,1,1.32935-.17536c4.00726,0,7.2558,4.48053,7.2558,10.00751s-3.24854,10.00751-7.2558,10.00751c-.158,0-.31262-.01886-.46814-.0326C79.70184,49.85581,64.36957,72.00577,45.872,72.00577s-33.82983-22.15-36.64807-43.00928c-.15552.01374-.31012.0326-.46814.0326-4.00726,0-7.2558-4.48053-7.2558-10.00751S4.74854,9.01407,8.7558,9.01407a5.35107,5.35107,0,0,1,1.32934.17536L11.06487.16184" fill="none" stroke="#fff" stroke-miterlimit="10" stroke-width="3"/>
  <circle cx="29.86743" cy="16.87824" r="5.75553" fill="#fff"/>
  <circle cx="61.71594" cy="16.87824" r="5.75553" fill="#fff"/>
  <path d="M32.83228,41.51746A26.64751,26.64751,0,0,0,46.2276,45.56394a26.64751,26.64751,0,0,0,13.39532-4.04648" fill="none" stroke="#fff" stroke-miterlimit="10" stroke-width="3"/>
</svg>
